<svg width="78" height="18" viewBox="0 0 78 18" fill="none" xmlns="http://www.w3.org/2000/svg">
<path d="M9.28422 17.2674H5.39648V8.47812C8.95873 4.91549 5.39648 8.47812 8.95873 4.91549L15.4901 4.91537V8.47769H9.28422V17.2674Z" fill="white"/>
<path d="M15.4773 0.741859L15.4773 1.85514L15.4744 1.85514C15.4621 1.24643 14.9727 0.756077 14.364 0.743813L14.364 0.741859L15.4773 0.741859Z" fill="white"/>
<path d="M8.94458 0.737297L9.19067 0.737297L9.19067 0.741203C9.02577 0.744059 8.87945 0.815645 8.77563 0.928703L8.7688 0.928703L8.94458 0.737297Z" fill="white"/>
<path d="M0.717149 9.44299L0.701287 8.89835L1.01362 8.62445L1.05846 8.6565C1.05373 8.66144 1.04777 8.66521 1.04312 8.67025C0.8462 8.88381 0.747879 9.15262 0.743246 9.42189L0.717149 9.44299Z" fill="white"/>
<path d="M15.4773 4.93256L15.4773 3.79389L15.4753 3.79389C15.4656 4.40686 14.9743 4.90167 14.364 4.91401L14.364 4.93256L15.4773 4.93256Z" fill="white"/>
<path d="M5.4126 16.7407L5.4126 15.6274L5.41162 15.6274C5.39942 16.2366 4.90871 16.7271 4.29932 16.7387L4.29932 16.7407L5.4126 16.7407Z" fill="white"/>
<path d="M15.4773 16.7399L15.4773 15.6266L15.4744 15.6266C15.4626 16.2358 14.9731 16.7266 14.364 16.7389L14.364 16.7399L15.4773 16.7399Z" fill="white"/>
<path d="M9.2749 16.7399L9.2749 15.6266L9.27686 15.6266C9.28864 16.236 9.77888 16.7269 10.3882 16.7389L10.3882 16.7399L9.2749 16.7399Z" fill="white"/>
<path d="M0.743652 16.7399L0.743652 15.6266L0.745605 15.6266C0.757401 16.2361 1.24743 16.7272 1.85693 16.7389L1.85693 16.7399L0.743652 16.7399Z" fill="white"/>
<path d="M15.4773 8.47319L15.4773 9.58647L15.4744 9.58647C15.4621 8.97772 14.9728 8.48739 14.364 8.47514L14.364 8.47319L15.4773 8.47319Z" fill="white"/>
<path d="M0.445312 17.1105H15.7744C15.8153 17.1105 15.8486 17.0773 15.8486 17.0363V0.445511C15.8486 0.404547 15.8154 0.371347 15.7744 0.371292H8.83301C8.81335 0.371292 8.79419 0.378899 8.78027 0.392776L0.392578 8.79512C0.378799 8.80902 0.371094 8.82828 0.371094 8.84785V17.0363C0.371137 17.0773 0.404379 17.1105 0.445312 17.1105Z" stroke="white" stroke-width="0.74232"/>
<path d="M27.5071 17.4352H23.6194V8.64593C27.1816 5.0833 23.6194 8.64593 27.1816 5.0833L33.713 5.08319V8.64551H27.5071V17.4352Z" fill="white"/>
<path d="M73.2416 4.66636C75.6322 4.66636 77.2501 6.23594 77.2501 9.06119V17.4162H73.3865V10.2927C73.3865 8.43335 72.7345 7.80552 71.4547 7.80552C69.9817 7.80552 69.1365 8.55409 69.1365 10.2686V17.4162H65.2729V5.05272H69.1365V6.83962H69.1848C69.8368 5.7047 71.0442 4.66636 73.2416 4.66636Z" fill="white"/>
<path d="M59.2185 8.48165C59.2185 7.75723 58.7114 7.32257 57.6489 7.32257C56.2484 7.32257 55.5722 7.85382 55.4515 9.03704H51.8294C51.9501 6.67059 53.6404 4.66636 57.6731 4.66636C61.1503 4.66636 63.0821 6.01861 63.0821 9.90635V15.581C63.0821 16.233 63.0821 16.2968 63.0821 16.5497V17.4169H62.7831C62.6145 17.4169 60.1119 17.4169 59.3392 17.4169C59.3392 17.0493 59.3392 16.9815 59.3392 16.1122H59.2909C58.4941 17.0298 57.0452 17.8025 55.4032 17.8025C52.7953 17.8025 51.3464 16.3296 51.3464 14.2529C51.3464 11.7898 53.1575 10.6549 56.0552 10.0754C57.6489 9.76146 59.2185 9.51999 59.2185 8.48165ZM56.7555 15.1463C58.4216 15.1463 59.2185 14.0838 59.2185 12.9006V11.4035C58.7355 11.5967 58.1319 11.7657 57.2384 11.9589C55.7171 12.2969 55.21 12.9248 55.21 13.6975C55.21 14.7117 55.8137 15.1463 56.7555 15.1463Z" fill="white"/>
<path d="M46.1714 5.05299H50.035V17.4165H46.1714V5.05299Z" fill="white"/>
<path d="M40.5132 0.150665H44.3768V17.4161H40.5132V0.150665Z" fill="white"/>
<path d="M34.8528 5.05299H38.7164V17.4165H34.8528V5.05299Z" fill="white"/>
<rect x="34.8323" y="0.150665" width="3.87842" height="3.16176" rx="0.421568" fill="white"/>
<rect x="46.1729" y="0.150665" width="3.87842" height="3.16176" rx="0.421568" fill="white"/>
</svg>
