<svg width="1275" height="602" viewBox="0 0 1275 602" fill="none" xmlns="http://www.w3.org/2000/svg" xmlns:xlink="http://www.w3.org/1999/xlink">
<g clip-path="url(#clip0_4973_31733)">
<rect x="91.375" width="1091.59" height="591.452" rx="15.7447" fill="#2B2B2B"/>
<g clip-path="url(#clip1_4973_31733)">
<rect x="91.7852" y="-0.87915" width="1091.59" height="591.452" rx="15.7447" fill="#2B2B2B"/>
<g clip-path="url(#clip2_4973_31733)">
<rect width="1091.59" height="727.727" transform="translate(91.7852 -0.821777)" fill="#151519"/>
<g filter="url(#filter0_f_4973_31733)">
<circle cx="1060.07" cy="539.64" r="123.301" fill="url(#paint0_linear_4973_31733)"/>
</g>
<g filter="url(#filter1_f_4973_31733)">
<circle cx="208.691" cy="116.084" r="116.905" fill="url(#paint1_linear_4973_31733)"/>
</g>
<g clip-path="url(#clip3_4973_31733)">
<rect width="891.084" height="519.055" transform="translate(263.387 17.5679)" fill="black"/>
<g opacity="0.89" clip-path="url(#clip4_4973_31733)">
<rect width="874.839" height="502.809" transform="translate(271.512 25.6895)" fill="black" fill-opacity="0.08"/>
<ellipse opacity="0.27" cx="712.943" cy="279.873" rx="366.478" ry="254.184" fill="url(#paint2_radial_4973_31733)"/>
<mask id="mask0_4973_31733" style="mask-type:alpha" maskUnits="userSpaceOnUse" x="271" y="25" width="884" height="509">
<rect x="271.512" y="25.6895" width="882.864" height="507.422" fill="url(#paint3_radial_4973_31733)"/>
</mask>
<g mask="url(#mask0_4973_31733)">
<g opacity="0.42">
<g opacity="0.42">
<path d="M1031.49 -364.039V650.67" stroke="#0016FF" stroke-width="0.409872"/>
<path d="M1095.29 -364.039V650.67" stroke="#0016FF" stroke-width="0.409872"/>
<path d="M1079.34 -364.039V650.67" stroke="#0016FF" stroke-width="0.409872"/>
<path d="M1063.39 -364.039V650.67" stroke="#0016FF" stroke-width="0.409872"/>
<path d="M1047.44 -364.039V650.67" stroke="#0016FF" stroke-width="0.409872"/>
<path d="M1095.29 -364.039V650.67" stroke="#0016FF" stroke-width="0.409872"/>
<path d="M1143.14 -364.039V650.67" stroke="#0016FF" stroke-width="0.409872"/>
<path d="M1127.19 -364.039V650.67" stroke="#0016FF" stroke-width="0.409872"/>
<path d="M1111.24 -364.039V650.67" stroke="#0016FF" stroke-width="0.409872"/>
<path d="M330.594 -364.039V650.67" stroke="#0016FF" stroke-width="0.409872"/>
<path d="M314.645 -364.039V650.67" stroke="#0016FF" stroke-width="0.409872"/>
<path d="M298.695 -364.039V650.67" stroke="#0016FF" stroke-width="0.409872"/>
<path d="M282.742 -364.039V650.67" stroke="#0016FF" stroke-width="0.409872"/>
<path d="M712.941 -364.038V650.67" stroke="#0016FF" stroke-width="0.409872"/>
<path d="M649.143 -364.038V650.67" stroke="#0016FF" stroke-width="0.409872"/>
<path d="M585.344 -364.039V650.67" stroke="#0016FF" stroke-width="0.409872"/>
<path d="M521.539 -364.039V650.67" stroke="#0016FF" stroke-width="0.409872"/>
<path d="M457.74 -364.039V650.67" stroke="#0016FF" stroke-width="0.409872"/>
<path d="M394.393 -364.039V650.67" stroke="#0016FF" stroke-width="0.409872"/>
</g>
<g opacity="0.42">
<path d="M1220.12 454.268L205.409 454.268" stroke="#0016FF" stroke-width="0.409872"/>
<path d="M1220.12 390.468L205.409 390.468" stroke="#0016FF" stroke-width="0.409872"/>
<path d="M1220.3 326.903L205.588 326.903" stroke="#0016FF" stroke-width="0.409872"/>
<path d="M1220.3 263.219L205.588 263.218" stroke="#0016FF" stroke-width="0.409872"/>
<path d="M1220.3 199.972L205.588 199.972" stroke="#0016FF" stroke-width="0.409872"/>
<path d="M1220.3 136.289L205.588 136.289" stroke="#0016FF" stroke-width="0.409872"/>
<path d="M1220.3 72.606L205.588 72.6059" stroke="#0016FF" stroke-width="0.409872"/>
</g>
</g>
</g>
<circle cx="897.875" cy="417.388" r="8.95656" fill="#CC222B"/>
<circle cx="894.248" cy="402.324" r="3.80314" fill="#CC222B"/>
<circle cx="465.342" cy="164.733" r="5.233" fill="#4F57B1"/>
<circle cx="584.658" cy="452.419" r="2.80879" fill="#FF6D56"/>
<circle cx="636.997" cy="388.198" r="4.38992" fill="#4F57B1"/>
<circle cx="670.703" cy="83.0826" r="4.96421" fill="#4F57B1"/>
<circle cx="808.101" cy="140.197" r="4.96421" fill="#66FF8C"/>
<circle cx="685.934" cy="344.154" r="10.4735" fill="#66FF8C"/>
<circle cx="583.549" cy="472.227" r="8.07827" fill="#FF6E57"/>
<circle cx="894.244" cy="417.873" r="39.1526" stroke="#CC222B" stroke-width="0.406146" stroke-dasharray="4.06 4.06"/>
</g>
</g>
<rect width="159.19" height="1193.22" transform="translate(91.7852 -0.821777)" fill="#111114"/>
<path d="M125.929 18.7573V22.7642H119.103V32.4331H114.737V22.7026L114.75 22.689L118.682 18.7573H125.929Z" fill="#3C49D2" stroke="#3C49D2" stroke-width="0.088459"/>
<path d="M109.778 31.8459H125.752C125.838 31.8458 125.907 31.7766 125.907 31.6907V14.3293C125.907 14.2434 125.838 14.1732 125.752 14.1731H118.745C118.704 14.1731 118.664 14.1898 118.635 14.219L109.668 23.2014C109.639 23.2305 109.623 23.2698 109.623 23.3108V31.6907C109.623 31.7767 109.692 31.8459 109.778 31.8459Z" stroke="#3C49D2" stroke-width="1.55764"/>
</g>
</g>
<rect x="93.1306" y="0.466246" width="1088.9" height="588.762" rx="14.3993" stroke="url(#paint30_radial_4973_31733)" stroke-width="2.69079"/>
</g>
<rect x="92.7204" y="1.3454" width="1088.9" height="588.762" rx="14.3993" stroke="url(#paint31_radial_4973_31733)" stroke-width="2.69079"/>
<rect y="230.219" width="1275" height="371" fill="url(#paint32_radial_4973_31733)"/>
<defs>
<filter id="filter0_f_4973_31733" x="467.729" y="-52.7042" width="1184.69" height="1184.69" filterUnits="userSpaceOnUse" color-interpolation-filters="sRGB">
<feFlood flood-opacity="0" result="BackgroundImageFix"/>
<feBlend mode="normal" in="SourceGraphic" in2="BackgroundImageFix" result="shape"/>
<feGaussianBlur stdDeviation="234.521" result="effect1_foregroundBlur_4973_31733"/>
</filter>
<filter id="filter1_f_4973_31733" x="-377.258" y="-469.865" width="1171.9" height="1171.9" filterUnits="userSpaceOnUse" color-interpolation-filters="sRGB">
<feFlood flood-opacity="0" result="BackgroundImageFix"/>
<feBlend mode="normal" in="SourceGraphic" in2="BackgroundImageFix" result="shape"/>
<feGaussianBlur stdDeviation="234.521" result="effect1_foregroundBlur_4973_31733"/>
</filter>
<linearGradient id="paint0_linear_4973_31733" x1="1060.07" y1="416.339" x2="1060.07" y2="662.941" gradientUnits="userSpaceOnUse">
<stop stop-color="#5EB6FF"/>
<stop offset="1" stop-color="#3C49D2"/>
</linearGradient>
<linearGradient id="paint1_linear_4973_31733" x1="208.691" y1="-0.821777" x2="208.691" y2="232.989" gradientUnits="userSpaceOnUse">
<stop stop-color="#5EB6FF"/>
<stop offset="1" stop-color="#3C49D2"/>
</linearGradient>
<radialGradient id="paint2_radial_4973_31733" cx="0" cy="0" r="1" gradientUnits="userSpaceOnUse" gradientTransform="translate(712.943 279.873) rotate(90) scale(254.184 366.478)">
<stop stop-color="#0016FF"/>
<stop offset="1" stop-color="#0016FF" stop-opacity="0"/>
</radialGradient>
<radialGradient id="paint3_radial_4973_31733" cx="0" cy="0" r="1" gradientUnits="userSpaceOnUse" gradientTransform="translate(712.944 279.4) rotate(90) scale(325.914 567.058)">
<stop offset="0.0895032" stop-color="#0016FF"/>
<stop offset="1" stop-color="#737373" stop-opacity="0"/>
</radialGradient>
<radialGradient id="paint30_radial_4973_31733" cx="0" cy="0" r="1" gradientUnits="userSpaceOnUse" gradientTransform="translate(291.847 -67.9816) rotate(83.3704) scale(623.859 1151.4)">
<stop offset="0.193824" stop-color="#A1BEFF"/>
<stop offset="0.310598" stop-color="#175FFF"/>
<stop offset="1"/>
</radialGradient>
<radialGradient id="paint31_radial_4973_31733" cx="0" cy="0" r="1" gradientUnits="userSpaceOnUse" gradientTransform="translate(291.437 -67.1024) rotate(70.7297) scale(612.193 1129.87)">
<stop offset="0.193824" stop-color="#A1BEFF"/>
<stop offset="0.310598" stop-color="#175FFF"/>
<stop offset="1"/>
</radialGradient>
<radialGradient id="paint32_radial_4973_31733" cx="0" cy="0" r="1" gradientUnits="userSpaceOnUse" gradientTransform="translate(637 230.219) rotate(89.9026) scale(294 2089.48)">
<stop stop-color="#05061B" stop-opacity="0"/>
<stop offset="1" stop-color="#05061B"/>
</radialGradient>
<clipPath id="clip0_4973_31733">
<rect x="91.375" width="1091.59" height="591.452" rx="15.7447" fill="white"/>
</clipPath>
<clipPath id="clip1_4973_31733">
<rect x="91.7852" y="-0.87915" width="1091.59" height="591.452" rx="15.7447" fill="white"/>
</clipPath>
<clipPath id="clip2_4973_31733">
<rect width="1091.59" height="727.727" fill="white" transform="translate(91.7852 -0.821777)"/>
</clipPath>
<clipPath id="clip3_4973_31733">
<rect width="891.084" height="519.055" fill="white" transform="translate(263.387 17.5679)"/>
</clipPath>
<clipPath id="clip4_4973_31733">
<rect width="874.839" height="502.809" fill="white" transform="translate(271.512 25.6895)"/>
</clipPath>
</defs>
</svg>
