<svg width="1734" height="1001" viewBox="0 0 1734 1001" fill="none" xmlns="http://www.w3.org/2000/svg">
<path d="M875.552 5.5L9.52647 505.5M884.212 10.5L18.1867 510.5M892.872 15.5L26.847 515.5M901.533 20.5L35.5072 520.5M910.193 25.5L44.1675 525.5M918.853 30.5L52.8277 530.5M927.513 35.5L61.488 535.5M936.174 40.5L70.1482 540.5M944.834 45.5L78.8085 545.5M953.494 50.5L87.4688 550.5M962.154 55.5L96.129 555.5M970.815 60.5L104.789 560.5M979.475 65.5L113.45 565.5M988.135 70.5L122.11 570.5M996.795 75.5L130.77 575.5M1005.46 80.5L139.43 580.5M1014.12 85.5L148.091 585.5M1022.78 90.5L156.751 590.5M1031.44 95.5L165.411 595.5M1040.1 100.5L174.071 600.5M1048.76 105.5L182.732 605.5M1057.42 110.5L191.392 610.5M1066.08 115.5L200.052 615.5M1074.74 120.5L208.712 620.5M1083.4 125.5L217.373 625.5M1092.06 130.5L226.033 630.5M1100.72 135.5L234.693 635.5M1109.38 140.5L243.353 640.5M1118.04 145.5L252.014 645.5M1126.7 150.5L260.674 650.5M1135.36 155.5L269.334 655.5M1144.02 160.5L277.994 660.5M1152.68 165.5L286.655 665.5M1161.34 170.5L295.315 670.5M1170 175.5L303.975 675.5M1178.66 180.5L312.635 680.5M1187.32 185.5L321.296 685.5M1195.98 190.5L329.956 690.5M1204.64 195.5L338.616 695.5M1213.3 200.5L347.276 700.5M1221.96 205.5L355.937 705.5M1230.62 210.5L364.597 710.5M1239.28 215.5L373.257 715.5M1247.94 220.5L381.917 720.5M1256.6 225.5L390.578 725.5M1265.26 230.5L399.238 730.5M1273.92 235.5L407.898 735.5M1282.58 240.5L416.558 740.5M1291.24 245.5L425.219 745.5M1299.9 250.5L433.879 750.5M1308.56 255.5L442.539 755.5M1317.22 260.5L451.199 760.5M1325.89 265.5L459.86 765.5M1334.55 270.5L468.52 770.5M1343.21 275.5L477.18 775.5M1351.87 280.5L485.84 780.5M1360.53 285.5L494.501 785.5M1369.19 290.5L503.161 790.5M1377.85 295.5L511.821 795.5M1386.51 300.5L520.481 800.5M1395.17 305.5L529.142 805.5M1403.83 310.5L537.802 810.5M1412.49 315.5L546.462 815.5M1421.15 320.5L555.122 820.5M1429.81 325.5L563.783 825.5M1438.47 330.5L572.443 830.5M1447.13 335.5L581.103 835.5M1455.79 340.5L589.763 840.5M1464.45 345.5L598.424 845.5M1473.11 350.5L607.084 850.5M1481.77 355.5L615.744 855.5M1490.43 360.5L624.404 860.5M1499.09 365.5L633.065 865.5M1507.75 370.5L641.725 870.5M1516.41 375.5L650.385 875.5M1525.07 380.5L659.046 880.5M1533.73 385.5L667.706 885.5M1542.39 390.5L676.366 890.5M1551.05 395.5L685.026 895.5M1559.71 400.5L693.687 900.5M1568.37 405.5L702.347 905.5M1577.03 410.5L711.007 910.5M1585.69 415.5L719.667 915.5M1594.35 420.5L728.328 920.5M1603.01 425.5L736.988 925.5M1611.67 430.5L745.648 930.5M1620.33 435.5L754.308 935.5M1628.99 440.5L762.969 940.5M1637.65 445.5L771.629 945.5M1646.31 450.5L780.289 950.5M1654.97 455.5L788.949 955.5M1663.63 460.5L797.61 960.5M1672.3 465.5L806.27 965.5M1680.96 470.5L814.93 970.5M1689.62 475.5L823.59 975.5M1698.28 480.5L832.251 980.5M1706.94 485.5L840.911 985.5M1715.6 490.5L849.571 990.5M1724.26 495.5L858.231 995.5M858.231 5.5L1724.26 505.5M849.571 10.5L1715.6 510.5M840.911 15.5L1706.94 515.5M832.251 20.5L1698.28 520.5M823.59 25.5L1689.62 525.5M814.93 30.5L1680.96 530.5M806.27 35.5L1672.3 535.5M797.61 40.5L1663.63 540.5M788.949 45.5L1654.97 545.5M780.289 50.5L1646.31 550.5M771.629 55.5L1637.65 555.5M762.969 60.5L1628.99 560.5M754.308 65.5L1620.33 565.5M745.648 70.5L1611.67 570.5M736.988 75.5L1603.01 575.5M728.328 80.5L1594.35 580.5M719.667 85.5L1585.69 585.5M711.007 90.5L1577.03 590.5M702.347 95.5L1568.37 595.5M693.687 100.5L1559.71 600.5M685.026 105.5L1551.05 605.5M676.366 110.5L1542.39 610.5M667.706 115.5L1533.73 615.5M659.046 120.5L1525.07 620.5M650.385 125.5L1516.41 625.5M641.725 130.5L1507.75 630.5M633.065 135.5L1499.09 635.5M624.404 140.5L1490.43 640.5M615.744 145.5L1481.77 645.5M607.084 150.5L1473.11 650.5M598.424 155.5L1464.45 655.5M589.763 160.5L1455.79 660.5M581.103 165.5L1447.13 665.5M572.443 170.5L1438.47 670.5M563.783 175.5L1429.81 675.5M555.122 180.5L1421.15 680.5M546.462 185.5L1412.49 685.5M537.802 190.5L1403.83 690.5M529.142 195.5L1395.17 695.5M520.481 200.5L1386.51 700.5M511.821 205.5L1377.85 705.5M503.161 210.5L1369.19 710.5M494.501 215.5L1360.53 715.5M485.84 220.5L1351.87 720.5M477.18 225.5L1343.21 725.5M468.52 230.5L1334.55 730.5M459.86 235.5L1325.89 735.5M451.199 240.5L1317.22 740.5M442.539 245.5L1308.56 745.5M433.879 250.5L1299.9 750.5M425.219 255.5L1291.24 755.5M416.558 260.5L1282.58 760.5M407.898 265.5L1273.92 765.5M399.238 270.5L1265.26 770.5M390.578 275.5L1256.6 775.5M381.917 280.5L1247.94 780.5M373.257 285.5L1239.28 785.5M364.597 290.5L1230.62 790.5M355.937 295.5L1221.96 795.5M347.276 300.5L1213.3 800.5M338.616 305.5L1204.64 805.5M329.956 310.5L1195.98 810.5M321.296 315.5L1187.32 815.5M312.635 320.5L1178.66 820.5M303.975 325.5L1170 825.5M295.315 330.5L1161.34 830.5M286.655 335.5L1152.68 835.5M277.994 340.5L1144.02 840.5M269.334 345.5L1135.36 845.5M260.674 350.5L1126.7 850.5M252.014 355.5L1118.04 855.5M243.353 360.5L1109.38 860.5M234.693 365.5L1100.72 865.5M226.033 370.5L1092.06 870.5M217.373 375.5L1083.4 875.5M208.712 380.5L1074.74 880.5M200.052 385.5L1066.08 885.5M191.392 390.5L1057.42 890.5M182.732 395.5L1048.76 895.5M174.071 400.5L1040.1 900.5M165.411 405.5L1031.44 905.5M156.751 410.5L1022.78 910.5M148.091 415.5L1014.12 915.5M139.43 420.5L1005.46 920.5M130.77 425.5L996.795 925.5M122.11 430.5L988.135 930.5M113.45 435.5L979.475 935.5M104.789 440.5L970.815 940.5M96.129 445.5L962.154 945.5M87.4688 450.5L953.494 950.5M78.8085 455.5L944.834 955.5M70.1482 460.5L936.174 960.5M61.488 465.5L927.513 965.5M52.8277 470.5L918.853 970.5M44.1675 475.5L910.193 975.5M35.5072 480.5L901.533 980.5M26.847 485.5L892.872 985.5M18.1867 490.5L884.212 990.5M9.52647 495.5L875.552 995.5M866.892 0.5L0.866213 500.5L866.892 1000.5L1732.92 500.5L866.892 0.5Z" stroke="url(#paint0_linear_4988_28024)"/>
<defs>
<linearGradient id="paint0_linear_4988_28024" x1="866.892" y1="318.543" x2="866.892" y2="1017.93" gradientUnits="userSpaceOnUse">
<stop stop-color="#090A2D" stop-opacity="0"/>
<stop offset="1" stop-color="white"/>
</linearGradient>
</defs>
</svg>
