<svg width="193" height="64" viewBox="0 0 193 64" fill="none" xmlns="http://www.w3.org/2000/svg">
<rect width="8" height="8" transform="translate(185)" fill="#0016FC"/>
<foreignObject x="-13.1" y="-5.1" width="211.2" height="82.2"><div xmlns="http://www.w3.org/1999/xhtml" style="backdrop-filter:blur(6.55px);clip-path:url(#bgblur_0_74_558_clip_path);height:100%;width:100%"></div></foreignObject><path data-figma-bg-blur-radius="13.1" d="M83.749 63.5L77.8984 57.5244L77.751 57.374H7.69531L0.5 48.8301V13.752L4.19531 8.5H184.5V40.4961L169.446 63.5H83.749Z" fill="#001E53" fill-opacity="0.32" stroke="#0016FC"/>
<path d="M10.5305 29V28.1535H11.6365V21.946H10.5305V21.0996H14.492C14.9509 21.0996 15.3572 21.1823 15.7109 21.3479C16.072 21.5134 16.3504 21.7466 16.5461 22.0476C16.7492 22.3411 16.8508 22.6872 16.8508 23.086V23.1763C16.8508 23.5449 16.7793 23.8497 16.6364 24.0904C16.4934 24.3237 16.3241 24.508 16.1285 24.6435C15.9329 24.7714 15.741 24.8654 15.5529 24.9256V25.0836C15.741 25.1288 15.9366 25.2191 16.1398 25.3545C16.3429 25.4824 16.5122 25.6668 16.6477 25.9075C16.7906 26.1483 16.8621 26.4531 16.8621 26.8217V26.9346C16.8621 27.3635 16.7568 27.7359 16.5461 28.0519C16.3429 28.3604 16.0608 28.5975 15.6996 28.763C15.346 28.921 14.9397 29 14.4807 29H10.5305ZM12.5846 28.1422H14.3791C14.8757 28.1422 15.2557 28.0256 15.519 27.7924C15.7824 27.5591 15.914 27.2431 15.914 26.8443V26.7427C15.914 26.3439 15.7824 26.0279 15.519 25.7947C15.2557 25.5614 14.8757 25.4448 14.3791 25.4448H12.5846V28.1422ZM12.5846 24.587H14.413C14.8644 24.587 15.2256 24.4742 15.4964 24.2485C15.7673 24.0152 15.9028 23.7105 15.9028 23.3343V23.2214C15.9028 22.8377 15.7673 22.5329 15.4964 22.3072C15.2331 22.074 14.8719 21.9573 14.413 21.9573H12.5846V24.587ZM21.2201 29.158C20.6332 29.158 20.1216 29.0527 19.6852 28.842C19.2488 28.6313 18.9102 28.3191 18.6694 27.9052C18.4286 27.4839 18.3082 26.9685 18.3082 26.359V21.0996H19.245V26.3703C19.245 27.0174 19.4181 27.5027 19.7642 27.8262C20.1103 28.1498 20.5956 28.3115 21.2201 28.3115C21.8446 28.3115 22.3299 28.1498 22.6761 27.8262C23.0222 27.5027 23.1952 27.0174 23.1952 26.3703V21.0996H24.1433V26.359C24.1433 26.9685 24.0229 27.4839 23.7821 27.9052C23.5413 28.3191 23.199 28.6313 22.7551 28.842C22.3187 29.0527 21.807 29.158 21.2201 29.158ZM25.8816 29V21.0996H26.8296V29H25.8816ZM28.637 29V21.0996H29.5851V28.1422H33.5804V29H28.637ZM35.7365 29V21.9573H33.197V21.0996H39.2239V21.9573H36.6845V29H35.7365ZM42.659 29V28.1535H43.7651V21.946H42.659V21.0996H46.6205C47.0795 21.0996 47.4858 21.1823 47.8395 21.3479C48.2006 21.5134 48.479 21.7466 48.6747 22.0476C48.8778 22.3411 48.9794 22.6872 48.9794 23.086V23.1763C48.9794 23.5449 48.9079 23.8497 48.7649 24.0904C48.622 24.3237 48.4527 24.508 48.2571 24.6435C48.0614 24.7714 47.8696 24.8654 47.6815 24.9256V25.0836C47.8696 25.1288 48.0652 25.2191 48.2683 25.3545C48.4715 25.4824 48.6408 25.6668 48.7762 25.9075C48.9192 26.1483 48.9907 26.4531 48.9907 26.8217V26.9346C48.9907 27.3635 48.8853 27.7359 48.6747 28.0519C48.4715 28.3604 48.1893 28.5975 47.8282 28.763C47.4745 28.921 47.0682 29 46.6093 29H42.659ZM44.7132 28.1422H46.5077C47.0043 28.1422 47.3843 28.0256 47.6476 27.7924C47.9109 27.5591 48.0426 27.2431 48.0426 26.8443V26.7427C48.0426 26.3439 47.9109 26.0279 47.6476 25.7947C47.3843 25.5614 47.0043 25.4448 46.5077 25.4448H44.7132V28.1422ZM44.7132 24.587H46.5415C46.993 24.587 47.3542 24.4742 47.625 24.2485C47.8959 24.0152 48.0313 23.7105 48.0313 23.3343V23.2214C48.0313 22.8377 47.8959 22.5329 47.625 22.3072C47.3617 22.074 47.0005 21.9573 46.5415 21.9573H44.7132V24.587ZM52.3713 29V25.9865L49.561 21.0996H50.6445L52.7663 24.8918H52.9243L55.0461 21.0996H56.1296L53.3193 25.9865V29H52.3713ZM59.95 29V21.0996H62.9747C63.4487 21.0996 63.8701 21.1936 64.2388 21.3817C64.615 21.5623 64.9122 21.8219 65.1304 22.1605C65.3486 22.4991 65.4577 22.9091 65.4577 23.3907V23.5374C65.4577 24.0114 65.3448 24.4215 65.1191 24.7676C64.9009 25.1062 64.6037 25.3658 64.2275 25.5464C63.8513 25.727 63.4337 25.8173 62.9747 25.8173H60.898V29H59.95ZM60.898 24.9595H62.8731C63.3773 24.9595 63.776 24.8353 64.0695 24.587C64.3629 24.3312 64.5097 23.9738 64.5097 23.5148V23.402C64.5097 22.943 64.3629 22.5894 64.0695 22.3411C63.7836 22.0852 63.3848 21.9573 62.8731 21.9573H60.898V24.9595ZM66.7284 29V21.0996H69.9224C70.4115 21.0996 70.8404 21.1861 71.2091 21.3592C71.5853 21.5247 71.8787 21.7655 72.0894 22.0815C72.3001 22.39 72.4054 22.7624 72.4054 23.1988V23.323C72.4054 23.8421 72.2813 24.2522 72.033 24.5532C71.7847 24.8542 71.4912 25.0573 71.1526 25.1626V25.3207C71.4235 25.3282 71.6455 25.4185 71.8185 25.5915C71.9991 25.7571 72.0894 26.0091 72.0894 26.3477V29H71.1526V26.4606C71.1526 26.2348 71.0887 26.0618 70.9608 25.9414C70.8404 25.821 70.656 25.7608 70.4077 25.7608H67.6764V29H66.7284ZM67.6764 24.9031H69.8321C70.3513 24.9031 70.7501 24.7789 71.0285 24.5306C71.3144 24.2748 71.4574 23.9211 71.4574 23.4697V23.3907C71.4574 22.9392 71.3182 22.5894 71.0398 22.3411C70.7614 22.0852 70.3588 21.9573 69.8321 21.9573H67.6764V24.9031ZM73.2277 29L75.6656 21.0996H77.336L79.7738 29H78.7919L78.1824 27.0023H74.8191L74.2096 29H73.2277ZM75.0561 26.1446H77.9341L76.5798 21.6752H76.4218L75.0561 26.1446ZM83.7028 29.158C82.7622 29.158 82.0136 28.8871 81.4568 28.3454C80.9 27.7961 80.6216 26.9986 80.6216 25.9527V24.1469C80.6216 23.101 80.9 22.3072 81.4568 21.7655C82.0136 21.2162 82.7622 20.9416 83.7028 20.9416C84.6358 20.9416 85.3506 21.2011 85.8472 21.7203C86.3513 22.2395 86.6034 22.9505 86.6034 23.8534V23.9099H85.6666V23.8196C85.6666 23.2252 85.5048 22.7398 85.1813 22.3636C84.8653 21.9799 84.3724 21.788 83.7028 21.788C83.0331 21.788 82.5102 21.9949 82.134 22.4088C81.7578 22.8151 81.5697 23.3869 81.5697 24.1243V25.9753C81.5697 26.7126 81.7578 27.2882 82.134 27.7021C82.5102 28.1084 83.0331 28.3115 83.7028 28.3115C84.3724 28.3115 84.8653 28.1234 85.1813 27.7472C85.5048 27.3635 85.6666 26.8744 85.6666 26.28V26.0994H86.6034V26.2461C86.6034 27.149 86.3513 27.8601 85.8472 28.3793C85.3506 28.8984 84.6358 29.158 83.7028 29.158ZM89.8425 29V21.9573H87.3031V21.0996H93.33V21.9573H90.7906V29H89.8425ZM94.5364 29V21.0996H95.4845V29H94.5364ZM99.2331 29V21.9573H96.6937V21.0996H102.721V21.9573H100.181V29H99.2331ZM103.927 29V21.0996H104.875V29H103.927ZM109.549 29.158C108.609 29.158 107.856 28.8871 107.292 28.3454C106.735 27.7961 106.457 26.9986 106.457 25.9527V24.1469C106.457 23.101 106.735 22.3072 107.292 21.7655C107.856 21.2162 108.609 20.9416 109.549 20.9416C110.497 20.9416 111.25 21.2162 111.806 21.7655C112.371 22.3072 112.653 23.101 112.653 24.1469V25.9527C112.653 26.9986 112.371 27.7961 111.806 28.3454C111.25 28.8871 110.497 29.158 109.549 29.158ZM109.549 28.3115C110.234 28.3115 110.764 28.1084 111.141 27.7021C111.517 27.2882 111.705 26.7164 111.705 25.9865V24.113C111.705 23.3832 111.517 22.8151 111.141 22.4088C110.764 21.9949 110.234 21.788 109.549 21.788C108.872 21.788 108.345 21.9949 107.969 22.4088C107.593 22.8151 107.405 23.3832 107.405 24.113V25.9865C107.405 26.7164 107.593 27.2882 107.969 27.7021C108.345 28.1084 108.872 28.3115 109.549 28.3115ZM114.232 29V21.0996H116.072L118.826 28.4018H118.973V21.0996H119.909V29H118.07L115.327 21.6865H115.169V29H114.232ZM121.727 29V21.0996H126.592V21.9573H122.675V24.5983H126.276V25.4561H122.675V28.1422H126.648V29H121.727ZM128.087 29V21.0996H131.281C131.77 21.0996 132.199 21.1861 132.567 21.3592C132.944 21.5247 133.237 21.7655 133.448 22.0815C133.659 22.39 133.764 22.7624 133.764 23.1988V23.323C133.764 23.8421 133.64 24.2522 133.391 24.5532C133.143 24.8542 132.85 25.0573 132.511 25.1626V25.3207C132.782 25.3282 133.004 25.4185 133.177 25.5915C133.358 25.7571 133.448 26.0091 133.448 26.3477V29H132.511V26.4606C132.511 26.2348 132.447 26.0618 132.319 25.9414C132.199 25.821 132.014 25.7608 131.766 25.7608H129.035V29H128.087ZM129.035 24.9031H131.191C131.71 24.9031 132.109 24.7789 132.387 24.5306C132.673 24.2748 132.816 23.9211 132.816 23.4697V23.3907C132.816 22.9392 132.677 22.5894 132.398 22.3411C132.12 22.0852 131.717 21.9573 131.191 21.9573H129.035V24.9031ZM137.837 29.158C137.265 29.158 136.753 29.0564 136.302 28.8533C135.85 28.6501 135.493 28.3454 135.229 27.9391C134.974 27.5253 134.846 27.0098 134.846 26.3929V26.1558H135.783V26.3929C135.783 27.0475 135.974 27.5365 136.358 27.8601C136.742 28.1761 137.235 28.3341 137.837 28.3341C138.454 28.3341 138.924 28.1949 139.247 27.9165C139.571 27.6381 139.733 27.2882 139.733 26.8669C139.733 26.5734 139.657 26.3402 139.507 26.1671C139.364 25.9941 139.161 25.8549 138.898 25.7495C138.634 25.6367 138.326 25.5389 137.972 25.4561L137.385 25.3094C136.926 25.189 136.52 25.0423 136.166 24.8692C135.813 24.6961 135.534 24.4704 135.331 24.192C135.135 23.9061 135.038 23.5412 135.038 23.0972C135.038 22.6533 135.147 22.2696 135.365 21.946C135.591 21.6225 135.903 21.3742 136.302 21.2011C136.708 21.0281 137.174 20.9416 137.701 20.9416C138.235 20.9416 138.713 21.0356 139.135 21.2237C139.563 21.4043 139.898 21.6752 140.139 22.0363C140.387 22.39 140.511 22.8377 140.511 23.3794V23.8534H139.575V23.3794C139.575 22.9957 139.492 22.6872 139.326 22.4539C139.168 22.2207 138.946 22.0476 138.661 21.9348C138.382 21.8219 138.062 21.7655 137.701 21.7655C137.182 21.7655 136.764 21.8821 136.448 22.1153C136.132 22.3411 135.974 22.6646 135.974 23.086C135.974 23.3644 136.042 23.5901 136.178 23.7631C136.313 23.9362 136.505 24.0792 136.753 24.192C137.001 24.2974 137.299 24.3914 137.645 24.4742L138.232 24.6209C138.691 24.7187 139.101 24.8542 139.462 25.0272C139.831 25.1927 140.124 25.4222 140.342 25.7157C140.56 26.0016 140.669 26.3778 140.669 26.8443C140.669 27.3108 140.553 27.7171 140.32 28.0632C140.086 28.4093 139.755 28.6802 139.326 28.8759C138.905 29.064 138.408 29.158 137.837 29.158ZM142.648 29.158C142.43 29.158 142.245 29.0865 142.095 28.9436C141.952 28.8006 141.88 28.6163 141.88 28.3905C141.88 28.1648 141.952 27.9805 142.095 27.8375C142.245 27.6945 142.43 27.6231 142.648 27.6231C142.873 27.6231 143.058 27.6945 143.201 27.8375C143.344 27.9805 143.415 28.1648 143.415 28.3905C143.415 28.6163 143.344 28.8006 143.201 28.9436C143.058 29.0865 142.873 29.158 142.648 29.158ZM10.5305 43V42.1535H11.6365V35.946H10.5305V35.0996H13.6116C14.65 35.0996 15.4513 35.3629 16.0156 35.8896C16.5875 36.4163 16.8734 37.2252 16.8734 38.3162V39.7834C16.8734 40.8819 16.5875 41.6945 16.0156 42.2212C15.4513 42.7404 14.65 43 13.6116 43H10.5305ZM12.5846 42.1422H13.6116C14.3791 42.1422 14.9585 41.9541 15.3497 41.5779C15.741 41.2017 15.9366 40.6186 15.9366 39.8285V38.2823C15.9366 37.4772 15.741 36.8903 15.3497 36.5216C14.9585 36.153 14.3791 35.9686 13.6116 35.9686H12.5846V42.1422ZM18.3867 43V35.0996H23.2511V35.9573H19.3348V38.5983H22.9351V39.4561H19.3348V42.1422H23.3076V43H18.3867ZM24.7463 43V35.0996H27.771C28.2451 35.0996 28.6664 35.1936 29.0351 35.3817C29.4113 35.5623 29.7085 35.8219 29.9267 36.1605C30.1449 36.4991 30.254 36.9091 30.254 37.3907V37.5374C30.254 38.0114 30.1412 38.4215 29.9154 38.7676C29.6972 39.1062 29.4 39.3658 29.0238 39.5464C28.6476 39.727 28.23 39.8173 27.771 39.8173H25.6944V43H24.7463ZM25.6944 38.9595H27.6695C28.1736 38.9595 28.5724 38.8353 28.8658 38.587C29.1593 38.3312 29.306 37.9738 29.306 37.5148V37.402C29.306 36.943 29.1593 36.5894 28.8658 36.3411C28.5799 36.0852 28.1811 35.9573 27.6695 35.9573H25.6944V38.9595ZM31.5247 43V35.0996H32.4728V42.1422H36.4681V43H31.5247ZM40.3322 43.158C39.3917 43.158 38.6393 42.8871 38.0749 42.3454C37.5181 41.7961 37.2397 40.9986 37.2397 39.9527V38.1469C37.2397 37.101 37.5181 36.3072 38.0749 35.7655C38.6393 35.2162 39.3917 34.9416 40.3322 34.9416C41.2803 34.9416 42.0327 35.2162 42.5895 35.7655C43.1538 36.3072 43.4359 37.101 43.4359 38.1469V39.9527C43.4359 40.9986 43.1538 41.7961 42.5895 42.3454C42.0327 42.8871 41.2803 43.158 40.3322 43.158ZM40.3322 42.3115C41.0169 42.3115 41.5474 42.1084 41.9236 41.7021C42.2998 41.2882 42.4879 40.7164 42.4879 39.9865V38.113C42.4879 37.3832 42.2998 36.8151 41.9236 36.4088C41.5474 35.9949 41.0169 35.788 40.3322 35.788C39.655 35.788 39.1283 35.9949 38.7521 36.4088C38.3759 36.8151 38.1878 37.3832 38.1878 38.113V39.9865C38.1878 40.7164 38.3759 41.2882 38.7521 41.7021C39.1283 42.1084 39.655 42.3115 40.3322 42.3115ZM46.7722 43V39.9865L43.9619 35.0996H45.0454L47.1672 38.8918H47.3252L49.4471 35.0996H50.5306L47.7203 39.9865V43H46.7722ZM51.5954 43V35.0996H56.4598V35.9573H52.5435V38.5983H56.1438V39.4561H52.5435V42.1422H56.5163V43H51.5954ZM57.5826 43V42.1535H58.6886V35.946H57.5826V35.0996H60.6637C61.7021 35.0996 62.5034 35.3629 63.0677 35.8896C63.6396 36.4163 63.9255 37.2252 63.9255 38.3162V39.7834C63.9255 40.8819 63.6396 41.6945 63.0677 42.2212C62.5034 42.7404 61.7021 43 60.6637 43H57.5826ZM59.6367 42.1422H60.6637C61.4312 42.1422 62.0106 41.9541 62.4018 41.5779C62.7931 41.2017 62.9887 40.6186 62.9887 39.8285V38.2823C62.9887 37.4772 62.7931 36.8903 62.4018 36.5216C62.0106 36.153 61.4312 35.9686 60.6637 35.9686H59.6367V42.1422ZM69.0617 43L67.7751 35.0996H68.7232L69.8405 42.3905H69.9985L71.4544 35.0996H73.1474L74.5921 42.3905H74.7501L75.8674 35.0996H76.8155L75.5288 43H73.8359L72.3799 35.6639H72.2219L70.766 43H69.0617ZM78.136 43V35.0996H79.084V38.6096H82.7859V35.0996H83.734V43H82.7859V39.4674H79.084V43H78.136ZM85.5426 43V35.0996H90.407V35.9573H86.4907V38.5983H90.091V39.4561H86.4907V42.1422H90.4635V43H85.5426ZM91.9022 43V35.0996H95.0962C95.5853 35.0996 96.0142 35.1861 96.3829 35.3592C96.7591 35.5247 97.0525 35.7655 97.2632 36.0815C97.4739 36.39 97.5792 36.7624 97.5792 37.1988V37.323C97.5792 37.8421 97.4551 38.2522 97.2068 38.5532C96.9585 38.8542 96.665 39.0573 96.3264 39.1626V39.3207C96.5973 39.3282 96.8193 39.4185 96.9923 39.5915C97.1729 39.7571 97.2632 40.0091 97.2632 40.3477V43H96.3264V40.4606C96.3264 40.2348 96.2625 40.0618 96.1346 39.9414C96.0142 39.821 95.8299 39.7608 95.5816 39.7608H92.8503V43H91.9022ZM92.8503 38.9031H95.0059C95.5251 38.9031 95.9239 38.7789 96.2023 38.5306C96.4882 38.2748 96.6312 37.9211 96.6312 37.4697V37.3907C96.6312 36.9392 96.492 36.5894 96.2136 36.3411C95.9352 36.0852 95.5326 35.9573 95.0059 35.9573H92.8503V38.9031ZM99.0223 43V35.0996H103.887V35.9573H99.9704V38.5983H103.571V39.4561H99.9704V42.1422H103.943V43H99.0223ZM108.281 43V35.0996H109.229V43H108.281ZM112.977 43V35.9573H110.438V35.0996H116.465V35.9573H113.925V43H112.977ZM120.272 43V35.0996H122.078L124.177 42.4018H124.324L126.423 35.0996H128.229V43H127.315V35.7203H127.157L125.069 43H123.433L121.345 35.7203H121.187V43H120.272ZM129.417 43L131.855 35.0996H133.525L135.963 43H134.981L134.372 41.0023H131.008L130.399 43H129.417ZM131.245 40.1446H134.123L132.769 35.6752H132.611L131.245 40.1446ZM138.239 43V35.9573H135.7V35.0996H141.727V35.9573H139.187V43H138.239ZM144.874 43V35.9573H142.335V35.0996H148.362V35.9573H145.822V43H144.874ZM149.568 43V35.0996H154.433V35.9573H150.516V38.5983H154.117V39.4561H150.516V42.1422H154.489V43H149.568ZM155.928 43V35.0996H159.122C159.611 35.0996 160.04 35.1861 160.409 35.3592C160.785 35.5247 161.078 35.7655 161.289 36.0815C161.5 36.39 161.605 36.7624 161.605 37.1988V37.323C161.605 37.8421 161.481 38.2522 161.232 38.5532C160.984 38.8542 160.691 39.0573 160.352 39.1626V39.3207C160.623 39.3282 160.845 39.4185 161.018 39.5915C161.199 39.7571 161.289 40.0091 161.289 40.3477V43H160.352V40.4606C160.352 40.2348 160.288 40.0618 160.16 39.9414C160.04 39.821 159.856 39.7608 159.607 39.7608H156.876V43H155.928ZM156.876 38.9031H159.032C159.551 38.9031 159.95 38.7789 160.228 38.5306C160.514 38.2748 160.657 37.9211 160.657 37.4697V37.3907C160.657 36.9392 160.518 36.5894 160.239 36.3411C159.961 36.0852 159.558 35.9573 159.032 35.9573H156.876V38.9031ZM165.678 43.158C165.106 43.158 164.594 43.0564 164.143 42.8533C163.691 42.6501 163.334 42.3454 163.071 41.9391C162.815 41.5253 162.687 41.0098 162.687 40.3929V40.1558H163.624V40.3929C163.624 41.0475 163.815 41.5365 164.199 41.8601C164.583 42.1761 165.076 42.3341 165.678 42.3341C166.295 42.3341 166.765 42.1949 167.089 41.9165C167.412 41.6381 167.574 41.2882 167.574 40.8669C167.574 40.5734 167.499 40.3402 167.348 40.1671C167.205 39.9941 167.002 39.8549 166.739 39.7495C166.475 39.6367 166.167 39.5389 165.813 39.4561L165.226 39.3094C164.767 39.189 164.361 39.0423 164.007 38.8692C163.654 38.6961 163.375 38.4704 163.172 38.192C162.977 37.9061 162.879 37.5412 162.879 37.0972C162.879 36.6533 162.988 36.2696 163.206 35.946C163.432 35.6225 163.744 35.3742 164.143 35.2011C164.549 35.0281 165.016 34.9416 165.542 34.9416C166.077 34.9416 166.554 35.0356 166.976 35.2237C167.405 35.4043 167.739 35.6752 167.98 36.0363C168.228 36.39 168.353 36.8377 168.353 37.3794V37.8534H167.416V37.3794C167.416 36.9957 167.333 36.6872 167.168 36.4539C167.01 36.2207 166.788 36.0476 166.502 35.9348C166.223 35.8219 165.903 35.7655 165.542 35.7655C165.023 35.7655 164.606 35.8821 164.289 36.1153C163.973 36.3411 163.815 36.6646 163.815 37.086C163.815 37.3644 163.883 37.5901 164.019 37.7631C164.154 37.9362 164.346 38.0792 164.594 38.192C164.843 38.2974 165.14 38.3914 165.486 38.4742L166.073 38.6209C166.532 38.7187 166.942 38.8542 167.303 39.0272C167.672 39.1927 167.965 39.4222 168.183 39.7157C168.401 40.0016 168.511 40.3778 168.511 40.8443C168.511 41.3108 168.394 41.7171 168.161 42.0632C167.927 42.4093 167.596 42.6802 167.168 42.8759C166.746 43.064 166.25 43.158 165.678 43.158ZM170.489 43.158C170.271 43.158 170.086 43.0865 169.936 42.9436C169.793 42.8006 169.721 42.6163 169.721 42.3905C169.721 42.1648 169.793 41.9805 169.936 41.8375C170.086 41.6945 170.271 41.6231 170.489 41.6231C170.715 41.6231 170.899 41.6945 171.042 41.8375C171.185 41.9805 171.256 42.1648 171.256 42.3905C171.256 42.6163 171.185 42.8006 171.042 42.9436C170.899 43.0865 170.715 43.158 170.489 43.158Z" fill="white"/>
<defs>
<clipPath id="bgblur_0_74_558_clip_path" transform="translate(13.1 5.1)"><path d="M83.749 63.5L77.8984 57.5244L77.751 57.374H7.69531L0.5 48.8301V13.752L4.19531 8.5H184.5V40.4961L169.446 63.5H83.749Z"/>
</clipPath></defs>
</svg>
